<?xml version="1.0" encoding="UTF-8" standalone="no"?>
<svg
   xmlns:dc="http://purl.org/dc/elements/1.1/"
   xmlns:cc="http://creativecommons.org/ns#"
   xmlns:rdf="http://www.w3.org/1999/02/22-rdf-syntax-ns#"
   xmlns:svg="http://www.w3.org/2000/svg"
   xmlns="http://www.w3.org/2000/svg"
   xmlns:xlink="http://www.w3.org/1999/xlink"
   xmlns:sodipodi="http://sodipodi.sourceforge.net/DTD/sodipodi-0.dtd"
   xmlns:inkscape="http://www.inkscape.org/namespaces/inkscape"
   id="Layer_1"
   data-name="Layer 1"
   viewBox="0 0 406.39 320.69"
   width="406"
   height="306"
   class="illustration styles_illustrationTablet__1DWOa"
   version="1.1"
   sodipodi:docname="ilustrasi header video.svg"
   inkscape:version="0.92.3 (2405546, 2018-03-11)">
  <metadata
     id="metadata159">
    <rdf:RDF>
      <cc:Work
         rdf:about="">
        <dc:format>image/svg+xml</dc:format>
        <dc:type
           rdf:resource="http://purl.org/dc/dcmitype/StillImage" />
        <dc:title>IT Support</dc:title>
      </cc:Work>
    </rdf:RDF>
  </metadata>
  <sodipodi:namedview
     pagecolor="#ffffff"
     bordercolor="#666666"
     borderopacity="1"
     objecttolerance="10"
     gridtolerance="10"
     guidetolerance="10"
     inkscape:pageopacity="0"
     inkscape:pageshadow="2"
     inkscape:window-width="1600"
     inkscape:window-height="819"
     id="namedview157"
     showgrid="false"
     inkscape:zoom="1.0907007"
     inkscape:cx="263.67849"
     inkscape:cy="125.40329"
     inkscape:window-x="-9"
     inkscape:window-y="-9"
     inkscape:window-maximized="1"
     inkscape:current-layer="Layer_1" />
  <defs
     id="defs44">
    <linearGradient
       id="linear-gradient"
       x1="270.74"
       y1="234.8"
       x2="202.24"
       y2="237.81"
       gradientUnits="userSpaceOnUse">
      <stop
         offset="0.01"
         id="stop2" />
      <stop
         offset="1"
         stop-opacity="0"
         id="stop4" />
    </linearGradient>
    <linearGradient
       id="linear-gradient-2"
       x1="441.67"
       y1="443.69"
       x2="219.22"
       y2="238.19"
       xlink:href="#linear-gradient" />
    <linearGradient
       id="linear-gradient-3"
       x1="204.74"
       y1="304.22"
       x2="206.43"
       y2="332.73"
       xlink:href="#linear-gradient" />
    <linearGradient
       id="linear-gradient-4"
       x1="259.23"
       y1="154.67"
       x2="253.39"
       y2="200.4"
       xlink:href="#linear-gradient"
       gradientTransform="matrix(0.86078154,0,0,0.86078154,14.303186,13.180671)" />
    <linearGradient
       id="linear-gradient-5"
       x1="253.75"
       y1="196.7"
       x2="274.92"
       y2="216.74"
       gradientUnits="userSpaceOnUse">
      <stop
         offset="0.02"
         stop-color="#fff"
         stop-opacity="0"
         id="stop10" />
      <stop
         offset="0.58"
         stop-color="#fff"
         stop-opacity="0.39"
         id="stop12" />
      <stop
         offset="1"
         stop-color="#fff"
         id="stop14" />
    </linearGradient>
    <linearGradient
       id="linear-gradient-6"
       x1="250.41"
       y1="206.47"
       x2="229.94"
       y2="207.88"
       xlink:href="#linear-gradient-5" />
    <linearGradient
       id="linear-gradient-7"
       x1="245.56"
       y1="145.01"
       x2="143.94"
       y2="324.55"
       xlink:href="#linear-gradient" />
    <linearGradient
       id="linear-gradient-8"
       x1="181.28"
       y1="387.2"
       x2="119.18"
       y2="214.44"
       gradientUnits="userSpaceOnUse">
      <stop
         offset="0.01"
         id="stop19" />
      <stop
         offset="0.09"
         stop-opacity="0.82"
         id="stop21" />
      <stop
         offset="1"
         stop-opacity="0"
         id="stop23" />
    </linearGradient>
    <linearGradient
       id="linear-gradient-9"
       x1="246.99"
       y1="65.36"
       x2="249.06"
       y2="87"
       xlink:href="#linear-gradient" />
    <linearGradient
       id="linear-gradient-10"
       x1="224.6"
       y1="86.53"
       x2="214.15"
       y2="127.47"
       xlink:href="#linear-gradient" />
    <linearGradient
       id="linear-gradient-11"
       x1="271.45"
       y1="94.82"
       x2="254.52"
       y2="108.37"
       xlink:href="#linear-gradient" />
    <linearGradient
       id="linear-gradient-12"
       x1="285.59"
       y1="107.76"
       x2="271.24"
       y2="110.63"
       xlink:href="#linear-gradient" />
    <linearGradient
       id="linear-gradient-13"
       x1="291.6"
       y1="88.55"
       x2="259.14"
       y2="102.67"
       xlink:href="#linear-gradient"
       gradientTransform="matrix(0.86078154,0,0,0.86078154,14.303186,13.180671)" />
    <linearGradient
       id="linear-gradient-14"
       x1="58.42"
       y1="67.19"
       x2="52.45"
       y2="186.54"
       gradientUnits="userSpaceOnUse">
      <stop
         offset="0.02"
         stop-color="#fff"
         stop-opacity="0"
         id="stop31" />
      <stop
         offset="0.58"
         stop-color="#fff"
         stop-opacity="0.39"
         id="stop33" />
      <stop
         offset="0.68"
         stop-color="#fff"
         stop-opacity="0.68"
         id="stop35" />
      <stop
         offset="1"
         stop-color="#fff"
         id="stop37" />
    </linearGradient>
    <linearGradient
       id="linear-gradient-15"
       x1="152.92"
       y1="132.64"
       x2="129.21"
       y2="189.38"
       xlink:href="#linear-gradient-14" />
    <linearGradient
       id="linear-gradient-16"
       x1="221.66"
       y1="123.38"
       x2="223.73"
       y2="93.83"
       xlink:href="#linear-gradient"
       gradientTransform="matrix(0.86078154,0,0,0.86078154,14.303186,13.180671)" />
    <linearGradient
       id="linear-gradient-17"
       x1="262.03"
       y1="150.04"
       x2="272.33"
       y2="171.21"
       xlink:href="#linear-gradient-14"
       gradientTransform="matrix(0.86078154,0,0,0.86078154,14.303186,13.180671)" />
    <linearGradient
       id="linear-gradient-18"
       x1="251.05"
       y1="156.41"
       x2="238.63"
       y2="181.44"
       xlink:href="#linear-gradient" />
    <linearGradient
       gradientUnits="userSpaceOnUse"
       y2="122.51"
       x2="501.81"
       y1="766.64"
       x1="501.81"
       id="b40d0b21-e963-4952-8000-4d7b7531dbb4-22"
       gradientTransform="matrix(0.56442418,0,0,0.56442418,-788.74743,-198.15456)">
      <stop
         id="stop1028"
         stop-opacity="0.25"
         stop-color="gray"
         offset="0" />
      <stop
         id="stop1030"
         stop-opacity="0.12"
         stop-color="gray"
         offset="0.54" />
      <stop
         id="stop1032"
         stop-opacity="0.1"
         stop-color="gray"
         offset="1" />
    </linearGradient>
  </defs>
  <title
     id="title46">IT Support</title>
  <g
     id="g1852"
     transform="translate(-4.1920262)">
    <path
       id="path48"
       style="opacity:0.18000004;isolation:isolate;fill:#68e1fd;stroke-width:0.92087656"
       d="m 348.36622,304.53663 c 19.49496,-7.36701 37.12052,-23.1232 40.94217,-43.62192 3.14939,-16.90729 -3.34279,-34.07242 -11.2347,-49.36819 -7.8919,-15.29576 -17.45061,-30.07582 -21.13411,-46.87262 -6.86054,-31.23613 7.29334,-65.888712 -6.15145,-94.905527 C 346.74548,61.056881 340.42826,53.542528 333.29147,47.142436 302.08296,19.258295 255.21956,13.014753 215.2443,25.345288 c -39.97525,12.330537 -73.34781,41.117138 -97.89837,74.986982 -10.12965,13.96049 -18.933231,28.86948 -29.97454,42.10247 -14.715606,17.62558 -33.814587,33.0963 -40.205469,55.11446 -4.650427,15.91275 -1.841754,33.15156 3.683506,48.80646 8.49969,23.99804 45.12295,66.68067 62.555143,66.59779 38.85178,-0.19339 113.39674,1.71283 149.41222,0.33151 26.98167,-1.059 57.30614,1.91542 85.54943,-8.74833 z"
       inkscape:connector-curvature="0" />
    <g
       transform="matrix(0.53399217,0,0,0.53399217,489.87994,64.712442)"
       id="g1509">
      <rect
         style="fill:#464353;stroke-width:0.92369568"
         x="134.75745"
         y="128.96454"
         width="49.556278"
         height="30.731356"
         id="rect1092"
         transform="matrix(-0.96293651,-0.26972816,-0.26972816,0.96293651,0,0)" />
      <path
         style="fill:#333333;stroke-width:0.92369568"
         inkscape:connector-curvature="0"
         d="m -437.80329,-2.6617549 -25.59028,-19.7342501 -6.32405,-1.77143 a 3.6116501,3.6116501 0 0 0 -4.45194,2.503624 l -22.76205,81.261094 a 3.6116501,3.6116501 0 0 0 2.50362,4.451955 l 6.32405,1.771431 32.22007,-3.93429 z"
         id="path1094" />
      <rect
         style="fill:#666666;stroke-width:0.92369568"
         x="361.026"
         y="119.36735"
         width="61.268734"
         height="59.347446"
         id="rect1096"
         transform="matrix(-0.96293651,-0.26972816,-0.26972816,0.96293651,0,0)" />
      <rect
         style="fill:#514e7f;stroke-width:0.92369568"
         x="254.67163"
         y="7.8957567"
         width="39.441807"
         height="7.1678791"
         id="rect1098"
         transform="matrix(-0.96293651,-0.26972816,-0.26972816,0.96293651,0,0)" />
      <rect
         style="fill:#666666;stroke-width:0.92369568"
         x="209.66922"
         y="17.178885"
         width="111.01899"
         height="81.054298"
         id="rect1100"
         transform="matrix(-0.96293651,-0.26972816,-0.26972816,0.96293651,0,0)" />
      <rect
         style="opacity:0.1;stroke-width:0.92369568"
         x="209.66922"
         y="88.635994"
         width="111.01899"
         height="9.6064348"
         id="rect1102"
         transform="matrix(-0.96293651,-0.26972816,-0.26972816,0.96293651,0,0)" />
      <rect
         style="opacity:0.1;stroke-width:0.92369568"
         x="360.07452"
         y="119.36735"
         width="2.4847414"
         height="59.347446"
         id="rect1104"
         transform="matrix(-0.96293651,-0.26972816,-0.26972816,0.96293651,0,0)" />
      <rect
         style="opacity:0.1;stroke-width:0.92369568"
         x="167.41013"
         y="128.96454"
         width="16.903631"
         height="30.731356"
         id="rect1106"
         transform="matrix(-0.96293651,-0.26972816,-0.26972816,0.96293651,0,0)" />
      <polygon
         style="opacity:0.1"
         points="628.82,292.19 713.11,282.76 715.73,303.38 627.42,303.38 "
         id="polygon1108"
         transform="matrix(-0.88946031,-0.24914673,-0.24914673,0.88946031,357.90054,27.346695)" />
      <rect
         style="fill:#4d4d4d;stroke-width:0.92369568"
         x="168.94342"
         y="90.169319"
         width="192.07329"
         height="118.31618"
         rx="9.883544"
         ry="9.883544"
         id="rect1110"
         transform="matrix(-0.96293651,-0.26972816,-0.26972816,0.96293651,0,0)" />
      <path
         style="fill:#4d4d4d;stroke-width:0.92369568"
         inkscape:connector-curvature="0"
         d="m -437.24292,-2.5047939 -0.56037,-0.1569593 -18.08058,64.5481342 0.56036,0.156964 a 4.7939807,4.7939807 0 0 0 5.90937,-3.323229 l 15.49443,-55.3155361 a 4.7939807,4.7939807 0 0 0 -3.32321,-5.9093698 z"
         id="path1112" />
      <path
         style="fill:#4d4d4d;stroke-width:0.92369568"
         inkscape:connector-curvature="0"
         d="m -463.40103,-22.369323 -5.98606,-1.676755 a 3.9626545,3.9626545 0 0 0 -4.88462,2.746944 l -22.57769,80.602893 a 3.9626545,3.9626545 0 0 0 2.74695,4.884624 l 5.98606,1.676755 z"
         id="path1114" />
      <rect
         style="opacity:0.1;stroke-width:0.92369568"
         x="134.75745"
         y="128.96454"
         width="8.8397675"
         height="30.731356"
         id="rect1116"
         transform="matrix(-0.96293651,-0.26972816,-0.26972816,0.96293651,0,0)" />
      <rect
         style="fill:#cccccc;fill-opacity:1;stroke-width:0.92369568"
         x="124.77232"
         y="119.36735"
         width="17.282347"
         height="52.244228"
         rx="6.650609"
         ry="6.650609"
         id="rect1118"
         transform="matrix(-0.96293651,-0.26972816,-0.26972816,0.96293651,0,0)" />
      <circle
         style="fill:#464353;stroke-width:0.92369568"
         cx="209.66922"
         cy="17.178885"
         r="55.320133"
         id="circle1120"
         transform="matrix(-0.96293651,-0.26972816,-0.26972816,0.96293651,0,0)" />
      <circle
         style="fill:#ee9393;fill-opacity:1;stroke-width:0.92369568"
         cx="209.66922"
         cy="17.178885"
         r="41.492409"
         id="circle1122"
         transform="matrix(-0.96293651,-0.26972816,-0.26972816,0.96293651,0,0)" />
      <circle
         style="fill:#464353;stroke-width:0.92369568"
         cx="312.23636"
         cy="18.333513"
         r="40.337791"
         id="circle1124"
         transform="matrix(-0.96293651,-0.26972816,-0.26972816,0.96293651,0,0)" />
      <circle
         style="fill:#ee9393;fill-opacity:1;stroke-width:0.92369568"
         cx="312.23636"
         cy="18.333513"
         r="30.251034"
         id="circle1126"
         transform="matrix(-0.96293651,-0.26972816,-0.26972816,0.96293651,0,0)" />
      <circle
         style="fill:#cccccc;stroke-width:0.92369568"
         cx="309.10501"
         cy="107.77496"
         r="5.3112502"
         id="circle1128"
         transform="matrix(-0.96293651,-0.26972816,-0.26972816,0.96293651,0,0)" />
      <circle
         style="opacity:0.5;fill:#cccccc;stroke-width:0.92369568"
         cx="325.99948"
         cy="107.77496"
         r="5.3112502"
         id="circle1130"
         transform="matrix(-0.96293651,-0.26972816,-0.26972816,0.96293651,0,0)" />
      <path
         style="opacity:0.1;stroke-width:0.92369568"
         inkscape:connector-curvature="0"
         d="m -194.89125,47.125835 c 0,0 6.56012,14.250233 3.02221,20.031529 z"
         id="path1218" />
      <path
         style="opacity:0.1;stroke-width:0.92369568"
         inkscape:connector-curvature="0"
         d="m -222.01614,45.609522 c 0,0 11.0325,17.152899 8.46394,18.035364 z"
         id="path1220" />
      <path
         style="opacity:0.1;stroke-width:0.92369568"
         inkscape:connector-curvature="0"
         d="m -235.64692,59.067473 c 0,0 -0.91638,8.990473 -3.38092,8.645459 z"
         id="path1222" />
    </g>
    <g
       id="g1618">
      <path
         style="fill:#f1af8c;stroke-width:0.86078155"
         inkscape:connector-curvature="0"
         d="m 172.88497,274.91851 c -0.86078,2.45323 -1.61827,5.26799 -0.37014,7.54906 a 9.6321454,9.6321454 0 0 0 3.27958,3.0816 l 11.87879,8.07413 c 2.28107,1.5494 4.69986,3.14185 7.43715,3.34844 2.73728,0.20658 5.84471,-1.5408 6.07712,-4.30391 0.27545,-3.15907 -3.03856,-5.31963 -4.58797,-8.09135 -2.03144,-3.6325 -0.91243,-8.13438 0.14633,-12.16284 a 222.7014,222.7014 0 0 0 5.8361,-30.86763 c -2.43601,-0.9985 -9.52885,-5.46596 -12.05094,-4.72569 -2.84058,0.86078 -5.40571,8.8058 -6.67106,11.39675 a 206.38098,206.38098 0 0 0 -10.97496,26.70144 z"
         id="path50" />
      <path
         style="fill:#ffffff;stroke-width:0.86078155"
         inkscape:connector-curvature="0"
         d="m 195.66986,206.78765 c -3.0816,8.75415 -6.35257,17.53412 -11.29346,25.40167 a 1.2481332,1.2481332 0 0 0 -0.26684,0.80053 1.2309176,1.2309176 0 0 0 0.48204,0.6714 c 4.96671,4.34695 10.32938,8.88327 16.86271,9.82152 a 2.0658757,2.0658757 0 0 0 1.27396,-0.1119 2.100307,2.100307 0 0 0 0.79191,-1.09319 c 4.16619,-9.64936 5.63812,-20.21976 5.5004,-30.66965 a 126.25944,126.25944 0 0 0 -1.23953,-15.59736 c -0.17215,-1.25674 -0.26684,-6.83461 -1.36003,-7.4888 -1.66131,-0.98129 -3.48617,2.44462 -4.20922,3.5206 -2.99552,4.48467 -4.76873,9.64936 -6.54194,14.74518 z"
         id="path52" />
      <path
         inkscape:connector-curvature="0"
         d="m 209.17552,190.10571 c 0,0 -3.88213,1.45472 -7.04119,12.38665 -3.15907,10.93192 -10.69952,37.42678 -10.69952,37.42678 0,0 11.66359,5.82749 14.58164,3.6411 2.91805,-2.18638 3.15907,-53.45453 3.15907,-53.45453 z"
         id="path54"
         style="fill:#e6e6e6;stroke-width:0.86078155" />
      <path
         style="fill:#ffffff;stroke-width:0.86078155"
         inkscape:connector-curvature="0"
         d="m 242.26396,178.84669 c 6.35257,-0.19798 12.78261,0.1119 18.89416,1.83346 6.11154,1.72156 11.92182,4.97532 15.93306,9.9076 4.44164,5.45735 6.387,12.59323 6.83461,19.6086 0.4476,7.01537 -0.48204,14.04795 -1.18788,21.05472 a 333.98324,333.98324 0 0 0 -1.30839,49.36582 c 0.18937,3.94238 2.44462,24.52366 -0.3271,27.33842 -1.72156,1.77321 1.72157,3.54642 -0.73166,4.13175 -20.05621,4.82038 -56.08853,2.45323 -75.07737,-5.58647 -4.82898,-2.04866 -9.67518,-4.89785 -12.05094,-9.56328 -2.58234,-5.05279 4.38999,-25.08318 5.22495,-30.70408 q 3.79604,-25.72876 5.47457,-51.73297 c 0.49064,-7.66957 -0.0775,-15.93307 1.49776,-23.46491 1.14484,-5.46596 4.66543,-6.95511 9.74404,-8.29793 a 122.60111,122.60111 0 0 1 27.08019,-3.89073 z"
         id="path56" />
      <path
         inkscape:connector-curvature="0"
         d="m 258.76514,268.58316 c -0.6628,3.48617 -1.53219,7.12727 -3.91655,9.76126 a 16.836887,16.836887 0 0 1 -6.73131,4.11454 c -11.96487,4.5105 -25.60826,3.80465 -37.07387,9.4686 a 8.0052683,8.0052683 0 0 0 -2.2036,1.4375 c -2.2122,2.18639 -1.59244,6.02547 0.16355,8.60782 3.89934,5.70698 11.48283,7.30803 18.32604,8.36679 16.4065,2.58235 33.15731,4.69126 49.55519,2.04866 a 4.5449265,4.5449265 0 0 0 2.45323,-0.93825 4.4588484,4.4588484 0 0 0 1.04155,-2.32411 c 3.71857,-16.50979 0.79192,-33.6996 0.72305,-50.62256 0,-9.76126 0.86079,-19.53113 0.19798,-29.26657 a 59.393926,59.393926 0 0 0 -3.73579,-17.70628 c -1.52358,-3.8563 -5.98243,-12.36943 -8.65946,-4.46745 -4.25226,12.5588 -5.47457,26.09889 -7.00676,39.19138 -0.83496,7.46297 -1.73017,14.93456 -3.13325,22.32867 z"
         id="path58"
         style="fill:#e6e6e6;stroke-width:0.86078155" />
      <rect
         style="fill:#68e1fd;stroke-width:0.86078155"
         x="117.70887"
         y="298.84827"
         width="153.25354"
         height="14.134033"
         rx="7.0670166"
         id="rect60" />
      <rect
         x="117.70887"
         y="298.84827"
         width="153.25354"
         height="14.134033"
         rx="7.0670166"
         id="rect62"
         style="fill:#1e4f46;fill-opacity:1;stroke-width:0.86078155" />
      <path
         style="fill:#f1af8c;stroke-width:0.86078155"
         inkscape:connector-curvature="0"
         d="m 226.91623,192.22323 c -2.84919,-0.45621 -4.45024,-3.32262 -3.17629,-10.22608 0.13773,-0.7661 0.31849,-1.50637 0.52508,-2.24664 0,-0.13773 0.0775,-0.27545 0.1119,-0.41318 0.30988,-1.06737 0.6628,-2.13474 1.00712,-3.1935 a 23.301356,23.301356 0 0 0 1.49776,-7.94501 c -0.0775,-1.9798 -0.23242,-4.03707 0.49925,-5.86192 a 9.5891064,9.5891064 0 0 1 3.1935,-3.86491 c 3.07299,-2.36715 12.05094,-6.81739 13.7725,-0.93825 0.7661,2.51348 0.20659,5.44013 0.17216,8.01387 a 24.101883,24.101883 0 0 0 1.9798,10.75116 c 1.8765,3.77023 -12.58463,17.04348 -19.58278,15.92446 z"
         id="path64" />
      <path
         inkscape:connector-curvature="0"
         style="fill:url(#linear-gradient-4);stroke-width:0.86078155"
         d="m 224.89339,178.2011 c 0,0 15.87281,-6.02547 18.93719,-15.55432 l -16.91435,5.53482 c 0,0 -0.40457,8.71972 -2.02284,10.0195 z"
         id="path66" />
      <path
         style="fill:#ffffff;stroke-width:0.86078155"
         inkscape:connector-curvature="0"
         d="m 267.92386,198.80821 a 106.63362,106.63362 0 0 0 8.67668,52.67122 3.9251638,3.9251638 0 0 0 1.05876,1.59245 4.3039077,4.3039077 0 0 0 2.58234,0.63698 31.685368,31.685368 0 0 0 19.67747,-6.31814 c 1.72156,-1.29978 3.33983,-2.96109 3.48616,-4.98392 a 8.1085621,8.1085621 0 0 0 -0.62837,-3.15907 349.89048,349.89048 0 0 0 -15.36495,-37.45261 c -2.16917,-4.51049 -5.07861,-9.79569 -10.32938,-11.7841 -6.31813,-2.38436 -8.71971,4.08011 -9.15871,8.79719 z"
         id="path68" />
      <path
         style="fill:#68e1fd;stroke-width:0.86078155"
         inkscape:connector-curvature="0"
         d="m 237.16813,209.10316 c 4.70848,-4.96671 8.16021,-10.96636 11.56891,-16.89714 2.07448,-3.61529 4.20061,-7.39412 4.49328,-11.5603 a 2.3068945,2.3068945 0 0 0 -0.2152,-1.38586 2.4876587,2.4876587 0 0 0 -0.79192,-0.73166 l -6.46447,-4.38138 c -0.1119,3.9682 -2.96108,7.3769 -6.21484,9.65797 -3.44312,2.44462 -13.29907,5.12165 -11.19016,10.19165 0.52508,1.28257 8.2635,15.68344 8.8144,15.10672 z"
         id="path70" />
      <path
         style="fill:#68e1fd;stroke-width:0.86078155"
         inkscape:connector-curvature="0"
         d="m 226.91623,192.22323 a 113.50265,113.50265 0 0 1 -6.46447,11.11269 c -0.91243,1.38586 -1.93676,2.82336 -3.44313,3.44313 a 0.94685969,0.94685969 0 0 1 -0.62837,0.0861 c -0.37874,-0.12912 -0.46482,-0.62838 -0.49065,-1.02433 -0.31848,-6.61941 -0.62837,-13.35073 0.9899,-19.79798 a 18.257176,18.257176 0 0 1 2.78894,-6.37839 c 0.46482,-0.61976 4.18339,-3.28819 5.75002,-3.57224 -0.34432,1.05876 -0.69724,2.12613 -1.00712,3.19349 a 1.0501535,1.0501535 0 0 0 -0.10329,0.31849 c 0,0 0,0.0603 0,0.0947 -0.20659,0.74027 -0.38735,1.48054 -0.52508,2.24664 -1.29117,6.95511 0.30988,9.82152 3.13325,10.27773 z"
         id="path72" />
      <path
         inkscape:connector-curvature="0"
         d="m 237.16813,209.10316 c 4.70848,-4.96671 8.16021,-10.96636 11.56891,-16.89714 2.07448,-3.61529 4.20061,-7.39412 4.49328,-11.5603 a 2.3068945,2.3068945 0 0 0 -0.2152,-1.38586 2.4876587,2.4876587 0 0 0 -0.79192,-0.73166 l -6.46447,-4.38138 c -0.1119,3.9682 -2.96108,7.3769 -6.21484,9.65797 -3.44312,2.44462 -13.29907,5.12165 -11.19016,10.19165 0.52508,1.28257 8.2635,15.68344 8.8144,15.10672 z"
         id="path74"
         style="fill:#2ca089;fill-opacity:1;stroke-width:0.86078155" />
      <path
         inkscape:connector-curvature="0"
         d="m 226.91623,192.22323 a 113.50265,113.50265 0 0 1 -6.46447,11.11269 c -0.91243,1.38586 -1.93676,2.82336 -3.44313,3.44313 a 0.94685969,0.94685969 0 0 1 -0.62837,0.0861 c -0.37874,-0.12912 -0.46482,-0.62838 -0.49065,-1.02433 -0.31848,-6.61941 -0.62837,-13.35073 0.9899,-19.79798 a 18.257176,18.257176 0 0 1 2.78894,-6.37839 c 0.46482,-0.61976 4.18339,-3.28819 5.75002,-3.57224 -0.34432,1.05876 -0.69724,2.12613 -1.00712,3.19349 a 1.0501535,1.0501535 0 0 0 -0.10329,0.31849 c 0,0 0,0.0603 0,0.0947 -0.20659,0.74027 -0.38735,1.48054 -0.52508,2.24664 -1.29117,6.95511 0.30988,9.82152 3.13325,10.27773 z"
         id="path76"
         style="fill:#2ca089;fill-opacity:1;stroke-width:0.86078155" />
      <path
         style="fill:#f1af8c;stroke-width:0.86078155"
         inkscape:connector-curvature="0"
         d="m 273.94933,302.08478 37.70223,-7.20474 c 2.22943,-0.43039 4.55354,-0.86078 6.31814,-2.32411 2.41879,-1.94537 3.27097,-5.35406 2.91805,-8.44427 -0.35292,-3.09021 -1.72157,-5.95661 -3.0816,-8.76276 -5.35406,-11.08686 -16.21713,-30.98813 -16.28599,-29.82608 -6.59358,1.39447 -12.05094,1.46333 -17.71488,5.08722 a 6.481685,6.481685 0 0 0 -2.39297,2.22943 c -2.26386,4.30391 3.92516,10.58761 6.02547,13.85858 a 8.1085621,8.1085621 0 0 1 1.56662,3.57224 5.8877457,5.8877457 0 0 1 -0.49925,2.67703 c -2.04006,5.00975 -9.30505,7.9278 -13.77251,10.50154 a 46.370302,46.370302 0 0 1 -19.17821,6.43864 c -5.26798,0.44761 -10.64787,-0.23241 -15.79534,0.94686 a 22.629947,22.629947 0 0 0 -14.83127,11.56891 c 3.06438,1.94536 7.0498,0.81774 10.57901,-0.0689 A 61.916016,61.916016 0 0 1 255.52,300.72474 c 4.35555,0.37014 16.36345,5.41432 18.42933,1.36004 z"
         id="path78" />
      <path
         style="fill:#68e1fd;stroke-width:0.86078155"
         inkscape:connector-curvature="0"
         d="M 215.6572,312.99088 H 108.92029 L 80.764129,241.54601 a 6.2750974,6.2750974 0 0 1 5.836099,-8.60781 H 170.3887 a 20.202543,20.202543 0 0 1 18.80808,12.79982 z"
         id="path80" />
      <path
         inkscape:connector-curvature="0"
         d="M 215.6572,312.99088 H 108.92029 L 80.764129,241.54601 a 6.2750974,6.2750974 0 0 1 5.836099,-8.60781 H 170.3887 a 20.202543,20.202543 0 0 1 18.80808,12.79982 z"
         id="path82"
         style="fill:#1c6557;fill-opacity:1;stroke-width:0.86078155" />
      <path
         inkscape:connector-curvature="0"
         d="M 210.23428,313.06835 H 108.817 L 82.063909,245.23016 a 5.9652161,5.9652161 0 0 1 5.543433,-8.1516 H 167.1952 a 19.22986,19.22986 0 0 1 17.86983,12.16284 z"
         id="path84"
         style="fill:#2ca089;fill-opacity:1;stroke-width:0.86078155" />
      <path
         style="fill:#68e1fd;stroke-width:0.86078155"
         inkscape:connector-curvature="0"
         d="m 223.4731,77.300288 c 2.58234,-1.514976 5.16469,-3.055775 8.08274,-3.62389 2.91805,-0.568116 6.88625,-0.223804 8.85744,1.979797 a 18.437941,18.437941 0 0 0 -13.16135,6.946507 1.2825645,1.2825645 0 0 1 -0.6628,0.568116 1.2481332,1.2481332 0 0 1 -0.69723,-0.129117 c -1.18788,-0.447607 -10.08836,1.583838 -10.60483,0.507861 0.0258,0 7.09284,-5.586472 8.18603,-6.249274 z"
         id="path86" />
      <path
         inkscape:connector-curvature="0"
         d="m 223.4731,77.300288 c 2.58234,-1.514976 5.16469,-3.055775 8.08274,-3.62389 2.91805,-0.568116 6.88625,-0.223804 8.85744,1.979797 a 18.437941,18.437941 0 0 0 -13.16135,6.946507 1.2825645,1.2825645 0 0 1 -0.6628,0.568116 1.2481332,1.2481332 0 0 1 -0.69723,-0.129117 c -1.18788,-0.447607 -10.08836,1.583838 -10.60483,0.507861 0.0258,0 7.09284,-5.586472 8.18603,-6.249274 z"
         id="path88"
         style="fill:#1c6557;fill-opacity:1;stroke-width:0.86078155" />
      <ellipse
         cx="204.23463"
         cy="130.06619"
         rx="10.449888"
         ry="12.877292"
         id="ellipse90"
         style="fill:#2ca089;fill-opacity:1;stroke-width:0.86078155" />
      <ellipse
         style="fill:#68e1fd;stroke-width:0.86078155"
         cx="206.37798"
         cy="131.5123"
         rx="9.6665764"
         ry="11.913217"
         id="ellipse92" />
      <ellipse
         cx="206.37798"
         cy="131.5123"
         rx="9.6665764"
         ry="11.913217"
         id="ellipse94"
         style="fill:#1c6557;fill-opacity:1;stroke-width:0.86078155" />
      <path
         style="fill:#f1af8c;stroke-width:0.86078155"
         inkscape:connector-curvature="0"
         d="m 202.97789,107.51372 2.4188,44.25278 c 0,0 1.07597,16.69916 17.6288,16.86271 19.88406,0.19798 25.93535,-11.36232 28.95669,-20.1595 3.02135,-8.79719 5.75003,-34.63785 0,-41.78234 -5.75002,-7.144487 -38.10679,-24.730254 -49.00429,0.82635 z"
         id="path96" />
      <path
         style="fill:#3f3d56;stroke-width:0.86078155"
         inkscape:connector-curvature="0"
         d="m 215.55391,80.941394 c -7.79868,-0.137725 -16.70777,3.503381 -20.2628,10.863063 a 12.739567,12.739567 0 0 0 -0.24102,10.957753 7.4974072,7.4974072 0 0 1 0.67141,1.60966 7.5404463,7.5404463 0 0 1 0,1.86789 9.1156765,9.1156765 0 0 0 3.69276,7.74704 c 1.36864,0.9899 3.02995,1.60966 4.12314,2.89222 l -0.42178,-8.23768 a 1.7215631,1.7215631 0 0 1 1.30838,-2.04866 l 5.24216,-2.44462 c 0,0 1.61827,1.17927 1.81625,1.27396 a 6.5935866,6.5935866 0 0 0 2.7545,0.52508 38.735169,38.735169 0 0 0 6.14598,-0.34432 c 4.3986,-0.62837 8.60782,-2.23803 12.71375,-3.83908 a 5.7844519,5.7844519 0 0 1 -1.56662,3.39148 l 13.36793,2.58234 a 36.324981,36.324981 0 0 1 4.69126,8.76276 30.531921,30.531921 0 0 1 1.80764,7.58348 27.398676,27.398676 0 0 1 -0.97268,10.49293 11.009396,11.009396 0 0 0 2.35854,-2.46183 13.540094,13.540094 0 0 0 3.9596,1.88511 1.7215631,1.7215631 0 0 0 0.92103,0.0775 c 0.6542,-0.18077 0.79192,-0.95547 0.86078,-1.57523 0.53369,-5.55204 4.66544,-10.2433 6.55916,-15.54572 2.29829,-6.42143 1.13623,-13.64338 -2.37576,-19.591384 a 15.795341,15.795341 0 0 0 -4.15757,-4.854808 c -6.15459,-4.510496 -14.90013,-2.44462 -21.92411,-4.803161 -3.33983,-1.119016 -6.02547,-3.245147 -9.21897,-4.648221 -3.54642,-1.506367 -7.98805,-2.04866 -11.85296,-2.117522 z"
         id="path98" />
      <path
         inkscape:connector-curvature="0"
         d="m 215.55391,80.941394 c -7.79868,-0.137725 -16.70777,3.503381 -20.2628,10.863063 a 12.739567,12.739567 0 0 0 -0.24102,10.957753 7.4974072,7.4974072 0 0 1 0.67141,1.60966 7.5404463,7.5404463 0 0 1 0,1.86789 9.1156765,9.1156765 0 0 0 3.69276,7.74704 c 1.36864,0.9899 3.02995,1.60966 4.12314,2.89222 l -0.42178,-8.23768 a 1.7215631,1.7215631 0 0 1 1.30838,-2.04866 l 5.24216,-2.44462 c 0,0 1.61827,1.17927 1.81625,1.27396 a 6.5935866,6.5935866 0 0 0 2.7545,0.52508 38.735169,38.735169 0 0 0 6.14598,-0.34432 c 4.3986,-0.62837 8.60782,-2.23803 12.71375,-3.83908 a 5.7844519,5.7844519 0 0 1 -1.56662,3.39148 l 13.36793,2.58234 a 36.324981,36.324981 0 0 1 4.69126,8.76276 30.531921,30.531921 0 0 1 1.80764,7.58348 27.398676,27.398676 0 0 1 -0.97268,10.49293 11.009396,11.009396 0 0 0 2.35854,-2.46183 13.540094,13.540094 0 0 0 3.9596,1.88511 1.7215631,1.7215631 0 0 0 0.92103,0.0775 c 0.6542,-0.18077 0.79192,-0.95547 0.86078,-1.57523 0.53369,-5.55204 4.66544,-10.2433 6.55916,-15.54572 2.29829,-6.42143 1.13623,-13.64338 -2.37576,-19.591384 a 15.795341,15.795341 0 0 0 -4.15757,-4.854808 c -6.15459,-4.510496 -14.90013,-2.44462 -21.92411,-4.803161 -3.33983,-1.119016 -6.02547,-3.245147 -9.21897,-4.648221 -3.54642,-1.506367 -7.98805,-2.04866 -11.85296,-2.117522 z"
         id="path100"
         style="fill:#000000;stroke-width:0.86078155" />
      <ellipse
         style="fill:#68e1fd;stroke-width:0.86078155"
         cx="261.79507"
         cy="131.65004"
         rx="10.337987"
         ry="12.748175"
         id="ellipse102" />
      <ellipse
         cx="261.79507"
         cy="131.65004"
         rx="10.337987"
         ry="12.748175"
         id="ellipse104"
         style="fill:#1c6557;fill-opacity:1;stroke-width:0.86078155" />
      <ellipse
         cx="265.7547"
         cy="131.65004"
         rx="10.337987"
         ry="12.748175"
         id="ellipse106"
         style="fill:#2ca089;fill-opacity:1;stroke-width:0.86078155" />
      <path
         style="fill:#68e1fd;stroke-width:0.86078155"
         inkscape:connector-curvature="0"
         d="m 265.83216,119.91758 -5.16469,0.5509 -1.23092,0.12912 -5.16469,-25.418879 c -2.68563,-10.053929 -9.2534,-17.783747 -17.49108,-20.779267 a 9.2964406,9.2964406 0 0 0 -3.97681,-0.47343 l -3.52059,0.318489 1.72156,-0.456214 3.44312,-0.912428 a 11.336493,11.336493 0 0 1 3.30541,-0.404568 c 9.19314,0.335705 17.91286,7.747034 21.07193,18.369079 z"
         id="path108" />
      <path
         inkscape:connector-curvature="0"
         style="fill:url(#linear-gradient-13);stroke-width:0.86078155"
         d="m 265.83216,119.91758 -5.16469,0.5509 -1.23092,0.12912 -5.16469,-25.418879 c -2.68563,-10.053929 -9.2534,-17.783747 -17.49108,-20.779267 a 9.2964406,9.2964406 0 0 0 -3.97681,-0.47343 l -3.52059,0.318489 1.72156,-0.456214 3.44312,-0.912428 a 11.336493,11.336493 0 0 1 3.30541,-0.404568 c 9.19314,0.335705 17.91286,7.747034 21.07193,18.369079 z"
         id="path110" />
      <path
         inkscape:connector-curvature="0"
         d="m 265.83216,119.91758 -5.16469,0.5509 -5.16469,-25.479131 C 252.7741,84.832126 246.14609,77.042053 237.83094,74.02071 a 9.0812452,9.0812452 0 0 0 -4.01985,-0.482037 l -2.80615,0.249626 3.44312,-0.912428 a 11.336493,11.336493 0 0 1 3.30541,-0.404568 c 9.19314,0.335705 17.91286,7.747034 21.07193,18.369079 z"
         id="path112"
         style="fill:#2ca089;fill-opacity:1;stroke-width:0.86078155" />
      <rect
         y="57.402847"
         width="153.14165"
         height="175.13461"
         rx="13.462624"
         style="opacity:1;isolation:isolate;fill:#2ca089;stroke-width:0.86078155"
         id="rect114"
         x="-6.3936"
         transform="rotate(-10.025489)" />
      <circle
         cx="39.787331"
         cy="192.87265"
         r="22.914005"
         id="circle116"
         style="fill:#f03939;fill-opacity:1;stroke:#ffffff;stroke-width:1.49208117;stroke-miterlimit:4;stroke-dasharray:none"
         transform="rotate(-10.025489)" />
      <rect
         x="7.2497883"
         y="74.007324"
         width="97.879471"
         height="5.5090017"
         id="rect118"
         style="fill:#ffffff;stroke-width:0.86078155"
         transform="rotate(-10.025489)" />
      <rect
         x="10.202269"
         y="146.4507"
         width="97.879471"
         height="5.5090017"
         id="rect120"
         style="opacity:0.51000001;fill:#ffffff;stroke-width:0.86078155"
         transform="rotate(-10.025489)" />
      <rect
         x="10.202269"
         y="137.02515"
         width="69.576973"
         height="5.5090017"
         id="rect122"
         style="fill:#ffffff;stroke-width:0.86078155"
         transform="rotate(-10.025489)" />
      <rect
         x="89.299484"
         y="137.02515"
         width="46.576889"
         height="5.5090017"
         id="rect124"
         style="fill:#ffffff;stroke-width:0.86078155"
         transform="rotate(-10.025489)" />
      <rect
         x="64.104408"
         y="102.15488"
         width="71.61702"
         height="4.8978472"
         id="rect126"
         style="fill:#ffffff;stroke-width:0.86078155"
         transform="rotate(-10.025489)" />
      <rect
         x="49.100986"
         y="110.84016"
         width="76.618164"
         height="4.8978472"
         id="rect128"
         style="opacity:0.51000001;fill:#ffffff;stroke-width:0.86078155"
         transform="rotate(-10.025489)" />
      <rect
         x="11.53648"
         y="102.15488"
         width="47.101967"
         height="4.8978472"
         id="rect130"
         style="fill:#ffffff;stroke-width:0.86078155"
         transform="rotate(-10.025489)" />
      <rect
         x="32.195236"
         y="119.27583"
         width="103.52619"
         height="4.8978472"
         id="rect132"
         style="fill:#ffffff;stroke-width:0.86078155"
         transform="rotate(-10.025489)" />
      <rect
         x="11.53648"
         y="119.27583"
         width="15.201402"
         height="4.8978472"
         id="rect134"
         style="opacity:0.51000001;fill:#ffffff;stroke-width:0.86078155"
         transform="rotate(-10.025489)" />
      <rect
         x="67.383987"
         y="127.96972"
         width="68.328835"
         height="4.8978472"
         id="rect136"
         style="opacity:0.51000001;fill:#ffffff;stroke-width:0.86078155"
         transform="rotate(-10.025489)" />
      <rect
         x="11.53648"
         y="127.96972"
         width="47.101967"
         height="4.8978472"
         id="rect138"
         style="fill:#ffffff;stroke-width:0.86078155"
         transform="rotate(-10.025489)" />
      <rect
         x="11.53648"
         y="110.63358"
         width="30.290901"
         height="4.8978472"
         id="rect140"
         style="fill:#ffffff;stroke-width:0.86078155"
         transform="rotate(-10.025489)" />
      <path
         d="m 152.23581,177.23702 0.53031,-4.07103 c 0,0 -5.45749,-2.93381 -5.55963,-2.67099 0,0 -0.68796,-2.75427 -0.68796,-2.75427 l 3.5581,-5.43673 -2.63625,-3.1441 c 0,0 -5.76263,2.01525 -5.71469,2.2865 a 28.483261,28.483261 0 0 0 -4.2042,-2.27251 l -1.31036,-6.32431 -4.08645,-0.37023 c 0,0 -2.69343,5.58107 -2.43211,5.67473 0,0 -2.64445,1.06191 -3.88486,1.70952 l -5.10995,-2.99525 -3.00394,2.78631 c 0,0 1.84335,4.54302 2.41706,5.46432 -0.76503,1.21044 -1.74343,2.59844 -1.74343,2.59844 l -6.14356,2.13505 0.1648,4.09675 c 0,0 4.87568,1.62058 5.78372,1.71355 a 14.073778,14.073778 0 0 0 1.26917,3.71794 l -2.51182,5.91611 3.14771,2.62536 c 0,0 3.2356,-1.82201 4.61903,-2.74841 1.62338,1.02421 3.88206,2.18085 3.88206,2.18085 l 2.69046,5.923 4.06473,-0.54376 c 0,0 1.14239,-4.86107 1.17049,-5.88877 a 20.297229,20.297229 0 0 1 3.89863,-0.74166 l 6.19666,1.9727 2.3301,-3.38396 a 58.86885,58.86885 0 0 0 -3.68492,-4.87306 11.259023,11.259023 0 0 0 0.72903,-1.56245 z m -18.79208,3.47078 a 8.1429934,8.1429934 0 1 1 6.59259,-9.43473 8.1516012,8.1516012 0 0 1 -6.59259,9.43473 z"
         id="path144"
         style="fill:#ffffff;stroke-width:0.86078155"
         inkscape:connector-curvature="0" />
      <path
         inkscape:connector-curvature="0"
         style="fill:url(#linear-gradient-16);stroke-width:0.86078155"
         d="m 197.41724,105.2843 c 1.52359,-3.01274 4.82899,-4.80317 8.16021,-5.345458 3.33123,-0.542292 6.73992,-0.04304 10.07115,0.464818 -3.22793,2.58235 -12.24032,6.43004 -12.41247,7.11867 a 20.977246,20.977246 0 0 0 -0.043,3.66693 c 0.12051,1.77321 0.18076,3.6325 0.17215,5.40571 a 13.772505,13.772505 0 0 0 -2.77171,-2.10031 6.8862523,6.8862523 0 0 1 -2.32411,-1.48915 7.1530946,7.1530946 0 0 1 -0.85218,-7.72121 z"
         id="path146" />
      <path
         style="fill:#68e1fd;stroke-width:0.86078155"
         inkscape:connector-curvature="0"
         d="m 241.25685,162.55209 a 40.11242,40.11242 0 0 1 -11.4484,-1.91093 1.7252229,1.7252229 0 0 1 0.9899,-3.3054 c 8.86605,2.66842 15.53711,2.3155 19.79798,-1.05016 5.80166,-4.55353 5.42292,-13.23021 5.42292,-13.31629 a 1.7237155,1.7237155 0 0 1 3.44313,-0.17215 c 0,0.42178 0.45621,10.56178 -6.73992,16.20851 q -4.49328,3.53781 -11.46561,3.54642 z"
         id="path148" />
      <path
         inkscape:connector-curvature="0"
         style="fill:url(#linear-gradient-17);stroke-width:0.86078155"
         d="m 241.25685,162.55209 a 40.11242,40.11242 0 0 1 -11.4484,-1.91093 1.7252229,1.7252229 0 0 1 0.9899,-3.3054 c 8.86605,2.66842 15.53711,2.3155 19.79798,-1.05016 5.80166,-4.55353 5.42292,-13.23021 5.42292,-13.31629 a 1.7237155,1.7237155 0 0 1 3.44313,-0.17215 c 0,0.42178 0.45621,10.56178 -6.73992,16.20851 q -4.49328,3.53781 -11.46561,3.54642 z"
         id="path150" />
      <path
         style="fill:#68e1fd;stroke-width:0.86078155"
         inkscape:connector-curvature="0"
         d="m 230.70367,154.42631 a 4.5621422,4.5621422 0 0 1 2.17777,2.35855 c 0.37875,1.46332 -0.75749,2.8664 -1.92815,3.82187 a 7.2047415,7.2047415 0 0 1 -3.57224,1.72156 c -1.94537,0.23241 -3.80466,-0.81774 -5.42293,-1.92815 a 7.178918,7.178918 0 0 1 -2.25524,-2.17778 c -1.49776,-2.63399 0.439,-6.02547 2.9783,-7.14449 2.81476,-1.2137 5.81028,1.89372 8.02249,3.34844 z"
         id="path152" />
      <path
         inkscape:connector-curvature="0"
         d="m 230.70367,154.42631 a 4.5621422,4.5621422 0 0 1 2.17777,2.35855 c 0.37875,1.46332 -0.75749,2.8664 -1.92815,3.82187 a 7.2047415,7.2047415 0 0 1 -3.57224,1.72156 c -1.94537,0.23241 -3.80466,-0.81774 -5.42293,-1.92815 a 7.178918,7.178918 0 0 1 -2.25524,-2.17778 c -1.49776,-2.63399 0.439,-6.02547 2.9783,-7.14449 2.81476,-1.2137 5.81028,1.89372 8.02249,3.34844 z"
         id="path154"
         style="fill:#000000;stroke-width:0.86078155" />
      <path
         style="opacity:1;fill:#ffffff;fill-opacity:1;stroke:none;stroke-width:0.26394588;stroke-linecap:round;stroke-linejoin:round;stroke-miterlimit:4;stroke-dasharray:none;stroke-opacity:1"
         d="m 66.003394,173.90589 3.527663,19.95445 12.389757,-12.47848 z"
         id="rect966"
         inkscape:connector-curvature="0" />
    </g>
    <g
       transform="translate(-203.96878,35.57116)"
       id="g1747">
      <path
         style="fill:#e6e6e6;stroke-width:0.14619529"
         inkscape:connector-curvature="0"
         d="m 595.6982,249.80899 a 2.2426357,2.2426357 0 0 1 -2.73765,1.60129 l -94.82178,-25.36431 a 2.2426357,2.2426357 0 0 1 -1.57264,-2.75421 L 513.8916,158.5223 a 2.2426357,2.2426357 0 0 1 2.73765,-1.60129 l 94.82178,25.36431 a 2.2426357,2.2426357 0 0 1 1.57264,2.7542 l -1e-5,5e-5 z"
         id="path1620" />
      <path
         style="fill:#2ca089;fill-opacity:1;stroke-width:0.14619529"
         inkscape:connector-curvature="0"
         d="m 594.86337,248.44915 a 2.1797718,2.1797718 0 0 1 -2.66901,1.54246 l -92.61853,-24.77494 a 2.1797718,2.1797718 0 0 1 -1.54247,-2.66901 l 16.7501,-62.61848 a 2.1797718,2.1797718 0 0 1 2.66901,-1.54248 l 92.62278,24.77608 a 2.1797718,2.1797718 0 0 1 1.53822,2.66789 z"
         id="path1622" />
      <path
         style="fill:#e6e6e6;stroke-width:0.14619529"
         inkscape:connector-curvature="0"
         id="b9c54412-061c-4155-b289-fb4c23e4a64e-23"
         data-name="c6fe725a-3b03-4a96-90af-cfbd2676500a"
         d="m 519.56961,161.86623 87.02865,23.27969 a 1.2938283,1.2938283 0 0 1 0.91555,1.58421 l -15.68853,58.64993 a 1.2938283,1.2938283 0 0 1 -1.58422,0.91555 L 503.2124,223.01592 a 1.2938283,1.2938283 0 0 1 -0.91555,-1.58422 l 15.68854,-58.64993 a 1.2938283,1.2938283 0 0 1 1.58422,-0.91554 z" />
      <path
         style="fill:#ffffff;stroke-width:0.14619529"
         inkscape:connector-curvature="0"
         d="m 520.29493,163.56754 84.73085,22.66504 a 1.2938283,1.2938283 0 0 1 0.91554,1.58422 l -14.85137,55.52028 a 1.2938283,1.2938283 0 0 1 -1.58421,0.91555 l -84.73085,-22.66504 a 1.2938283,1.2938283 0 0 1 -0.91555,-1.58422 l 14.85136,-55.52028 a 1.2938283,1.2938283 0 0 1 1.58423,-0.91555 z"
         id="path1625" />
      <path
         style="fill:#3f3d56;stroke-width:0.14619529"
         inkscape:connector-curvature="0"
         d="m 569.80375,218.13947 a 2.4662283,2.4662283 0 0 1 -0.91271,-0.46513 1.2154135,1.2154135 0 0 1 -0.17109,-0.16863 l -4.99841,-5.98176 v 0 a 2.4662181,2.4662181 0 0 1 -0.49006,-2.2181 l 1.58128,-5.91145 a 2.4662166,2.4662166 0 0 1 1.53203,-1.67721 l 7.31736,-2.68736 a 1.2154194,1.2154194 0 0 1 0.23243,-0.0607 2.4662107,2.4662107 0 0 1 2.76799,3.07315 l -3.83888,14.35128 a 2.4662122,2.4662122 0 0 1 -3.01975,1.74516 z"
         id="path1627" />
      <path
         style="fill:#3f3d56;stroke-width:0.14619529"
         inkscape:connector-curvature="0"
         d="m 555.71153,215.61523 -17.17465,-4.59412 c -3.50317,-0.94019 -5.73691,-3.96471 -4.99291,-6.76054 l 3.02714,-11.31663 c 0.75147,-2.79383 4.19668,-4.29929 7.7014,-3.36487 l 17.21945,4.6061 c 3.4782,0.93351 5.69583,3.93676 4.95766,6.71282 l -3.0367,11.35236 c -0.75147,2.79383 -4.19668,4.29929 -7.70139,3.36488 z"
         id="path1629" />
      <circle
         style="fill:#f03939;fill-opacity:1;stroke-width:0.14619529"
         cx="624.22351"
         cy="74.63987"
         r="5.2874918"
         id="circle1631"
         transform="rotate(14.97569)" />
      <path
         style="fill:#ffffff;stroke-width:0.14619529"
         inkscape:connector-curvature="0"
         d="m 586.41203,234.02798 -3.44276,-3.43983 a 0.10944179,0.10944179 0 0 0 -0.18308,0.0492 l -1.25761,4.70141 a 0.10944033,0.10944033 0 0 0 0.13409,0.134 l 4.70036,-1.26159 a 0.10944033,0.10944033 0 0 0 0.049,-0.18311 l -3.44275,-3.43983 a 0.10944179,0.10944179 0 0 0 -0.18308,0.0491 l -1.25761,4.70142 a 0.10944033,0.10944033 0 0 0 0.13409,0.134 l 4.70036,-1.26159 a 0.10944033,0.10944033 0 0 0 0.049,-0.18311 z"
         id="path1633" />
      <path
         style="fill:#e6e6e6;stroke-width:0.14619529"
         inkscape:connector-curvature="0"
         d="m 571.72977,251.72101 a 2.2426357,2.2426357 0 0 1 -2.73765,1.60129 l -94.82178,-25.36431 a 2.2426357,2.2426357 0 0 1 -1.57264,-2.7542 l 17.32547,-64.76947 a 2.2426357,2.2426357 0 0 1 2.73765,-1.60129 l 94.82178,25.36431 a 2.2426357,2.2426357 0 0 1 1.57265,2.7542 l -2e-5,5e-5 z"
         id="path1635" />
      <path
         style="fill:#2ca089;fill-opacity:1;stroke-width:0.14619529"
         inkscape:connector-curvature="0"
         d="m 570.89494,250.36117 a 2.1797718,2.1797718 0 0 1 -2.66901,1.54247 L 475.6074,227.12869 a 2.1797718,2.1797718 0 0 1 -1.54246,-2.66901 l 16.75009,-62.61849 a 2.1797718,2.1797718 0 0 1 2.66901,-1.54247 l 92.62278,24.77608 a 2.1797718,2.1797718 0 0 1 1.53822,2.66789 z"
         id="path1637" />
      <path
         style="fill:#e6e6e6;stroke-width:0.14619529"
         inkscape:connector-curvature="0"
         id="a7242049-80b4-49e1-bd08-67354734c824-24"
         data-name="c6fe725a-3b03-4a96-90af-cfbd2676500a"
         d="m 495.60118,163.77825 87.02866,23.27968 a 1.2938283,1.2938283 0 0 1 0.91554,1.58423 l -15.68853,58.64993 a 1.2938283,1.2938283 0 0 1 -1.58422,0.91554 l -87.02866,-23.27969 a 1.2938283,1.2938283 0 0 1 -0.91555,-1.58421 l 15.68854,-58.64993 a 1.2938283,1.2938283 0 0 1 1.58422,-0.91555 z" />
      <path
         style="fill:#ffffff;stroke-width:0.14619529"
         inkscape:connector-curvature="0"
         d="m 496.3265,165.47956 84.73085,22.66504 a 1.2938283,1.2938283 0 0 1 0.91554,1.58422 l -14.85137,55.52027 a 1.2938283,1.2938283 0 0 1 -1.58421,0.91556 l -84.73085,-22.66504 a 1.2938283,1.2938283 0 0 1 -0.91555,-1.58422 l 14.85137,-55.52028 a 1.2938283,1.2938283 0 0 1 1.58422,-0.91555 z"
         id="path1640" />
      <path
         style="fill:#3f3d56;stroke-width:0.14619529"
         inkscape:connector-curvature="0"
         d="m 545.83532,220.05149 a 2.4662283,2.4662283 0 0 1 -0.9127,-0.46513 1.2154135,1.2154135 0 0 1 -0.1711,-0.16863 l -4.9984,-5.98176 v 0 a 2.4662181,2.4662181 0 0 1 -0.49007,-2.2181 l 1.58128,-5.91145 a 2.4662166,2.4662166 0 0 1 1.53203,-1.67721 l 7.31736,-2.68736 a 1.2154194,1.2154194 0 0 1 0.23243,-0.0607 2.4662107,2.4662107 0 0 1 2.768,3.07315 l -3.83889,14.35128 a 2.4662122,2.4662122 0 0 1 -3.01975,1.74516 z"
         id="path1642" />
      <path
         style="fill:#3f3d56;stroke-width:0.14619529"
         inkscape:connector-curvature="0"
         d="m 531.74311,217.52725 -17.17466,-4.59413 c -3.50317,-0.94018 -5.73691,-3.96471 -4.99291,-6.76053 l 3.02714,-11.31663 c 0.75148,-2.79383 4.19669,-4.29929 7.7014,-3.36487 l 17.21945,4.6061 c 3.47821,0.93351 5.69583,3.93676 4.95766,6.71282 l -3.0367,11.35236 c -0.75147,2.79383 -4.19668,4.29929 -7.70138,3.36488 z"
         id="path1644" />
      <circle
         style="fill:#f03939;fill-opacity:1;stroke-width:0.14619529"
         cx="601.56329"
         cy="82.680611"
         r="5.2874918"
         id="circle1646"
         transform="rotate(14.97569)" />
      <path
         style="fill:#ffffff;stroke-width:0.14619529"
         inkscape:connector-curvature="0"
         d="m 562.44359,235.93999 -3.44275,-3.43982 a 0.10944179,0.10944179 0 0 0 -0.18308,0.0492 l -1.2576,4.70141 a 0.10944033,0.10944033 0 0 0 0.13408,0.134 l 4.70035,-1.26158 a 0.10944033,0.10944033 0 0 0 0.049,-0.18313 l -3.44275,-3.43983 a 0.10944179,0.10944179 0 0 0 -0.18308,0.0492 l -1.2576,4.70142 a 0.10944033,0.10944033 0 0 0 0.13408,0.134 l 4.70035,-1.26159 a 0.10944033,0.10944033 0 0 0 0.049,-0.18312 z"
         id="path1648" />
      <path
         style="fill:#e6e6e6;stroke-width:0.14619529"
         inkscape:connector-curvature="0"
         d="m 547.88281,254.8762 a 2.2426357,2.2426357 0 0 1 -2.73765,1.60129 l -94.82178,-25.36431 a 2.2426357,2.2426357 0 0 1 -1.57264,-2.7542 l 17.32547,-64.76947 a 2.2426357,2.2426357 0 0 1 2.73765,-1.60129 l 94.82178,25.36431 a 2.2426357,2.2426357 0 0 1 1.57265,2.7542 l -2e-5,5e-5 z"
         id="path1650" />
      <path
         style="fill:#2ca089;fill-opacity:1;stroke-width:0.14619529"
         inkscape:connector-curvature="0"
         d="m 547.04798,253.51637 a 2.1797718,2.1797718 0 0 1 -2.66901,1.54246 l -92.61853,-24.77494 a 2.1797718,2.1797718 0 0 1 -1.54248,-2.66901 l 16.75011,-62.6185 a 2.1797718,2.1797718 0 0 1 2.66901,-1.54246 L 562.25985,188.23 a 2.1797718,2.1797718 0 0 1 1.53823,2.66788 z"
         id="path1652" />
      <path
         style="fill:#e6e6e6;stroke-width:0.14619529"
         inkscape:connector-curvature="0"
         id="b7a050eb-0cb2-44a8-b642-35d340850eff-25"
         data-name="c6fe725a-3b03-4a96-90af-cfbd2676500a"
         d="m 471.75421,166.93344 87.02867,23.27969 a 1.2938283,1.2938283 0 0 1 0.91554,1.58422 l -15.68854,58.64993 a 1.2938283,1.2938283 0 0 1 -1.58421,0.91555 L 455.397,228.08314 a 1.2938283,1.2938283 0 0 1 -0.91554,-1.58422 L 470.17,167.84899 a 1.2938283,1.2938283 0 0 1 1.58421,-0.91555 z" />
      <path
         style="fill:#ffffff;stroke-width:0.14619529"
         inkscape:connector-curvature="0"
         d="m 472.47954,168.63476 84.73084,22.66504 a 1.2938283,1.2938283 0 0 1 0.91555,1.58421 l -14.85137,55.52029 a 1.2938283,1.2938283 0 0 1 -1.58422,0.91553 L 456.9595,226.6548 a 1.2938283,1.2938283 0 0 1 -0.91555,-1.58421 l 14.85137,-55.52029 a 1.2938283,1.2938283 0 0 1 1.58422,-0.91554 z"
         id="path1655" />
      <path
         style="fill:#f03939;fill-opacity:1;stroke-width:0.14619529"
         d="m 496.45755,194.64556 c -3.50472,-0.93441 -6.95048,0.57232 -7.70196,3.36615 l -3.02709,11.31646 c -0.74402,2.79584 1.49011,5.81976 4.99328,6.75994 l 17.17343,4.5938 c 3.50471,0.93442 6.94994,-0.57034 7.70142,-3.36418 l 0.22426,-0.8384 a 2.466218,2.466218 0 0 0 0.0846,0.11161 l 5.00006,5.98202 a 1.2154135,1.2154135 0 0 0 0.17102,0.16864 2.4662282,2.4662282 0 0 0 0.91192,0.46429 2.4662121,2.4662121 0 0 0 3.02009,-1.74536 l 3.83901,-14.35172 a 2.4662106,2.4662106 0 0 0 -2.7673,-3.0731 1.2154194,1.2154194 0 0 0 -0.23237,0.0607 l -7.31945,2.68873 a 2.4662165,2.4662165 0 0 0 -0.12793,0.0505 l 0.23273,-0.87005 c 0.73816,-2.77606 -1.47858,-5.78065 -4.95679,-6.71415 z"
         id="path1657"
         inkscape:connector-curvature="0" />
      <circle
         style="fill:#f03939;fill-opacity:1;stroke-width:0.14619529"
         cx="579.34155"
         cy="91.890907"
         r="5.2874918"
         id="circle1661"
         transform="rotate(14.97569)" />
      <path
         style="fill:#ffffff;stroke-width:0.14619529"
         inkscape:connector-curvature="0"
         d="m 538.59663,239.09519 -3.44275,-3.43983 a 0.10944179,0.10944179 0 0 0 -0.18308,0.0492 l -1.2576,4.70141 a 0.10944033,0.10944033 0 0 0 0.13408,0.134 l 4.70035,-1.26158 a 0.10944033,0.10944033 0 0 0 0.049,-0.18313 l -3.44275,-3.43982 a 0.10944179,0.10944179 0 0 0 -0.18308,0.0492 l -1.25761,4.70143 a 0.10944033,0.10944033 0 0 0 0.13409,0.134 l 4.70035,-1.2616 a 0.10944033,0.10944033 0 0 0 0.049,-0.18312 z"
         id="path1663" />
    </g>
  </g>
</svg>
